<?xml version="1.0" encoding="utf-8"?>
<!-- Generator: Adobe Illustrator 27.5.0, SVG Export Plug-In . SVG Version: 6.00 Build 0)  -->
<svg version="1.1" xmlns="http://www.w3.org/2000/svg" xmlns:xlink="http://www.w3.org/1999/xlink" x="0px" y="0px"
	 viewBox="0 0 500 500" style="enable-background:new 0 0 500 500;" xml:space="preserve">
<g id="background">
	<rect style="fill:#FFFFFF;" width="500" height="500"/>
</g>
<g id="objects">
	<g>
		<defs>
			<rect id="SVGID_1_" width="500" height="500"/>
		</defs>
		<clipPath id="SVGID_00000073685558618008100470000016746176073468746135_">
			<use xlink:href="#SVGID_1_"  style="overflow:visible;"/>
		</clipPath>
		<g style="clip-path:url(#SVGID_00000073685558618008100470000016746176073468746135_);">
			<g>
				<circle style="fill:#0468BF;stroke:#0468BF;stroke-miterlimit:10;" cx="167.756" cy="163.43" r="4.25"/>
				<path style="fill:#0468BF;stroke:#0468BF;stroke-miterlimit:10;" d="M179.506,165.18v-3.5h-2.393
					c-0.233-1.334-0.749-2.571-1.484-3.649l1.672-1.672l-2.475-2.475l-1.672,1.671c-1.076-0.734-2.313-1.25-3.65-1.484v-2.392h-3.5
					v2.44c-1.299,0.264-2.502,0.796-3.547,1.538l-1.774-1.774l-2.475,2.475l1.822,1.822c-0.681,1.04-1.158,2.225-1.381,3.499h-2.645
					v3.5h2.69c0.252,1.238,0.748,2.389,1.436,3.399l-1.922,1.922l2.475,2.475l1.921-1.922c1.009,0.688,2.159,1.183,3.4,1.435v2.69
					h3.5v-2.643c1.272-0.223,2.459-0.7,3.501-1.382l1.82,1.82l2.475-2.475l-1.774-1.774c0.741-1.043,1.273-2.245,1.538-3.547
					H179.506z M167.756,169.055c-3.107,0-5.625-2.518-5.625-5.625c0-3.107,2.518-5.625,5.625-5.625s5.625,2.518,5.625,5.625
					C173.381,166.537,170.863,169.055,167.756,169.055z"/>
			</g>
			<g>
				<polyline style="fill:none;stroke:#000000;stroke-width:2;stroke-miterlimit:10;" points="36.392,139.307 58.919,104.817 
					74.491,117.434 89.924,79.228 107.59,94.75 127.721,45.504 				"/>
				<path style="stroke:#000000;stroke-miterlimit:10;" d="M40.352,137.042c0.236,1.455-0.752,2.827-2.207,3.063
					c-1.455,0.236-2.827-0.752-3.063-2.207c-0.236-1.455,0.752-2.827,2.207-3.063C38.744,134.598,40.115,135.586,40.352,137.042z"/>
				<path style="stroke:#000000;stroke-miterlimit:10;" d="M61.113,105.002c0.236,1.455-0.752,2.827-2.207,3.063
					c-1.455,0.236-2.827-0.752-3.063-2.207c-0.236-1.455,0.752-2.827,2.207-3.063C59.506,102.558,60.877,103.546,61.113,105.002z"/>
				<path style="stroke:#000000;stroke-miterlimit:10;" d="M92.645,79.327c0.236,1.455-0.752,2.827-2.207,3.063
					c-1.455,0.236-2.827-0.752-3.063-2.207c-0.236-1.455,0.752-2.827,2.207-3.063C91.037,76.883,92.408,77.871,92.645,79.327z"/>
				<path style="stroke:#000000;stroke-miterlimit:10;" d="M110.752,94.237c0.236,1.455-0.752,2.827-2.207,3.063
					c-1.455,0.236-2.827-0.752-3.063-2.207c-0.236-1.455,0.752-2.827,2.207-3.063S110.516,92.782,110.752,94.237z"/>
				<path style="stroke:#000000;stroke-miterlimit:10;" d="M130.357,45.076c0.236,1.455-0.752,2.827-2.207,3.063
					c-1.455,0.236-2.827-0.752-3.063-2.207c-0.236-1.455,0.752-2.827,2.207-3.063C128.749,42.632,130.12,43.62,130.357,45.076z"/>
				<path style="stroke:#000000;stroke-miterlimit:10;" d="M77.126,117.006c0.236,1.455-0.752,2.827-2.207,3.063
					c-1.455,0.236-2.827-0.752-3.063-2.207c-0.236-1.455,0.752-2.827,2.207-3.063C75.519,114.563,76.89,115.551,77.126,117.006z"/>
			</g>
			<g>
				<path style="fill:none;stroke:#000000;stroke-linecap:round;stroke-miterlimit:10;" d="M474.855,381.576h-42.471
					c-1.674,0-3.032,0.945-3.032,2.111v20.601c0,1.166,1.358,2.111,3.032,2.111h40.262l5.091,1.982l0.15-24.693
					C477.887,382.521,476.529,381.576,474.855,381.576z"/>
				<circle style="fill:none;stroke:#DC4335;stroke-miterlimit:10;" cx="439.637" cy="393.767" r="4.719"/>
				<circle style="fill:none;stroke:#DC4335;stroke-miterlimit:10;" cx="452.637" cy="393.767" r="4.719"/>
				<circle style="fill:none;stroke:#DC4335;stroke-miterlimit:10;" cx="465.637" cy="393.767" r="4.719"/>
			</g>
			<polygon style="fill:#52A8F2;" points="327.405,49.709 335.773,40.363 325.099,33.772 325.622,37.387 302.53,40.727 
				303.837,49.763 326.93,46.423 			"/>
			<polygon style="fill:#52A8F2;" points="66.369,340.553 54.335,337.008 52.965,349.477 56.005,347.453 68.937,366.874 
				76.536,361.814 63.605,342.393 			"/>
			<g>
				
					<line style="fill:none;stroke:#000000;stroke-linecap:round;stroke-miterlimit:10;" x1="8.555" y1="384.752" x2="14.623" y2="371.599"/>
				<path style="fill:none;stroke:#000000;stroke-linecap:round;stroke-miterlimit:10;" d="M10.592,374.654
					c-0.534,1.236-1.968,1.806-3.204,1.272c-1.236-0.534-1.806-1.968-1.272-3.204c0.534-1.236,1.968-1.806,3.204-1.272
					C10.557,371.983,11.126,373.418,10.592,374.654z"/>
				<path style="fill:none;stroke:#000000;stroke-linecap:round;stroke-miterlimit:10;" d="M16.861,383.709
					c-0.534,1.236-1.968,1.805-3.204,1.272c-1.236-0.534-1.806-1.968-1.272-3.204c0.534-1.236,1.968-1.806,3.204-1.272
					C16.825,381.038,17.394,382.473,16.861,383.709z"/>
			</g>
			<g>
				
					<line style="fill:none;stroke:#000000;stroke-linecap:round;stroke-miterlimit:10;" x1="443.155" y1="80.68" x2="443.155" y2="70.495"/>
				
					<line style="fill:none;stroke:#000000;stroke-linecap:round;stroke-miterlimit:10;" x1="438.453" y1="75.588" x2="447.856" y2="75.588"/>
			</g>
			<g>
				
					<line style="fill:none;stroke:#000000;stroke-linecap:round;stroke-miterlimit:10;" x1="114.155" y1="380.68" x2="114.155" y2="370.495"/>
				
					<line style="fill:none;stroke:#000000;stroke-linecap:round;stroke-miterlimit:10;" x1="109.453" y1="375.588" x2="118.856" y2="375.588"/>
			</g>
			<path style="fill:#EECCC1;" d="M177.316,269.582c0,0-24.931,38.878-38.885,40.689c-18.882,2.451-57.952-33.796-57.952-33.796
				s-12.448-10.404-14.363-12.004c-0.677-0.566-21.059-22.479-23.538-20.486c-3.438,2.765,12.756,18.792,12.756,18.792
				s-4.112-1.891-6.152,0.551c-1.6,1.915,0.472,5.273,0.472,5.273s-3.673-1.443-5.273,0.472c-2.401,2.873,0.55,6.152,0.55,6.152
				s-3.594-0.564-5.116,2.23c-1.194,2.192,3.109,5.038,3.109,5.038s74.478,62.716,98.019,60.776
				c23.877-1.967,70.717-66.128,70.717-66.128L177.316,269.582z"/>
			<path style="fill:none;stroke:#000000;stroke-linecap:round;stroke-miterlimit:10;" d="M41.886,280.814
				c0,0,14.685,10.646,16.207,7.852c1.791-3.288-12.684-13.04-12.684-13.04s16.121,11.847,18.522,8.974
				c1.6-1.915-12.841-14.798-12.841-14.798s15.242,11.925,16.764,9.131c1.522-2.794-12.441-15.277-12.441-15.277"/>
			<path style="fill:#EECCC1;" d="M69.889,252.173c-2.779,3.733,3.566,20.058,2.845,21.894c-0.722,1.836-5.209,11.097-1.457,13.419
				c3.752,2.322,10.475-6.358,10.4-9.842C81.601,274.159,73.094,247.867,69.889,252.173z"/>
			<polygon style="fill:#0468BF;" points="297.769,375.61 304.476,518.38 248.901,518.38 247.943,433.101 238.361,518.38 
				192.368,518.38 197.828,375.61 			"/>
			<path style="fill:#EECCC1;" d="M308.788,249.608c0,0,30.727,39.635,45.993,40.244c20.658,0.823,59.736-47.082,59.736-47.082
				l15.61,12.39c0,0-49.218,70.444-74.866,70.624c-26.014,0.183-74.706-67.073-74.706-67.073L308.788,249.608z"/>
			<path style="fill:#92AB3B;" d="M189.014,247.691c11.977-7.187,41.681-12.888,64.199-13.415
				c20.601-0.479,38.596,1.945,49.826,7.665c13.07,6.65,42.672,39.765,42.672,39.765l-25.425,27.308l-17.247-19.164v94.861H197.638
				l0.23-10.847l0.527-25.306l1.159-55.834l-9.103,18.685l-34.974-17.727C155.478,293.685,185.622,249.723,189.014,247.691z"/>
			<path style="fill:#EECCC1;" d="M241.24,216.917l20.117,3.945v14.776c0,5.362-6.819,9.589-13.136,8.346
				c-7.944-1.562-7.647-9.095-7.647-9.095C240.377,234.474,241.24,216.917,241.24,216.917z"/>
			<g>
				<path style="fill:#534741;" d="M262.759,181.974c-0.428-0.991-0.988-1.935-1.242-2.984c-0.254-1.049-0.138-2.274,0.633-3.029
					c0.099-0.097,0.209-0.186,0.34-0.232c0.516-0.182,0.984,0.355,1.261,0.828c2.549,4.353,4.249,9.178,4.867,14.179
					c0.145,1.172,0.835,19.359-1.598,18.279c-1.757-0.779-2.089-17.734-2.43-19.38C264.057,187.067,263.809,184.405,262.759,181.974
					z"/>
				<path style="fill:#EECCC1;" d="M246.685,168.744c-20.506,1.037-13.829,59.923,10.326,58.877
					C281.165,226.576,269.572,167.587,246.685,168.744z"/>
				<path style="fill:#534741;" d="M263.35,178.518c-0.738,1.435-2.371,2.205-3.966,2.447c-1.25,0.189-19.877,3.457-20.569,4.386
					c-1.059,1.424-2.058,8.699-2.248,10.381c-0.069,0.613-0.143,1.242-0.437,1.785c-0.293,0.542-0.862,0.982-1.477,0.935
					c-1.081-0.083-1.505-1.423-1.652-2.497c-0.524-3.808-0.942-7.63-1.36-11.452c-0.182-1.66-0.363-3.343-0.097-4.992
					c0.193-1.199,0.618-2.347,1.041-3.486c0.458-1.234,0.922-2.48,1.646-3.579c1.461-2.217,3.842-3.641,6.216-4.83
					c2.398-1.201,4.902-2.252,7.545-2.706c2.643-0.454,5.451-0.278,7.867,0.884C259.735,167.658,265.861,173.639,263.35,178.518z"/>
				<path style="fill:#EECCC1;" d="M237.321,196.915c0,0-4.369-4.042-7.417-1.593c-5.003,4.02,0.922,11.061,3.505,12.586
					c2.582,1.525,5.166,0.334,5.166,0.334L237.321,196.915z"/>
				<path style="fill:none;stroke:#000000;stroke-linecap:round;stroke-miterlimit:10;" d="M255.502,194.903
					c0.565,4.573,2.182,8.81,3.749,10.271c0.321,0.299-2.079,0.606-3.157,0.628"/>
				<path style="fill:none;stroke:#000000;stroke-linecap:round;stroke-miterlimit:10;" d="M250.58,190.987
					c-2.926-0.471-6.059,0.641-8.034,2.85"/>
				<path style="fill:none;stroke:#000000;stroke-linecap:round;stroke-miterlimit:10;" d="M258.588,189.998
					c1.977-1.032,4.136-1.68,7.249-0.818"/>
				<path style="fill:none;stroke:#000000;stroke-linecap:round;stroke-miterlimit:10;" d="M262.014,214.501
					c-0.929,1.347-2.54,2.167-4.175,2.235c-1.635,0.068-3.267-0.583-4.486-1.674"/>
				<path style="fill:none;stroke:#000000;stroke-linecap:round;stroke-miterlimit:10;" d="M230.429,198.771
					c-0.167,0.814,0.126,1.649,0.472,2.404c0.906,1.981,2.264,3.824,4.151,4.914"/>
				<path style="fill:none;stroke:#000000;stroke-linecap:round;stroke-miterlimit:10;" d="M235.391,202.214
					c-0.844,0.168-1.48,1.001-1.494,1.862c-0.014,0.86,0.547,1.682,1.322,2.056"/>
				<path d="M249.436,197.188c0.091,0.823,0.699,1.431,1.357,1.358c0.658-0.073,1.118-0.799,1.027-1.622
					c-0.091-0.823-0.699-1.431-1.357-1.358C249.805,195.639,249.345,196.365,249.436,197.188z"/>
				<path d="M262.815,195.406c0.091,0.823,0.699,1.431,1.357,1.358c0.658-0.073,1.118-0.799,1.027-1.622
					c-0.091-0.823-0.699-1.431-1.357-1.358C263.184,193.857,262.724,194.583,262.815,195.406z"/>
				<path style="fill:none;stroke:#000000;stroke-linecap:round;stroke-miterlimit:10;" d="M245.515,222.848
					c3.2,3.131,7.052,4.966,11.495,4.774c2.084-0.09,3.902-0.612,5.47-1.489"/>
				<path d="M251.776,214.634c0,0,0.192,0.661,0.594,1.562c0.891,1.983,2.827,5.145,6.113,5.145c3.794,0,4.58-5.404,4.753-7.656
					c0.038-0.594,0.038-0.968,0.038-0.968L251.776,214.634z"/>
				<path style="fill:#FFFFFF;" d="M251.776,214.634c0,0,0.192,0.661,0.594,1.562l10.866-2.51c0.038-0.594,0.038-0.968,0.038-0.968
					L251.776,214.634z"/>
			</g>
			
				<line style="fill:none;stroke:#000000;stroke-linecap:round;stroke-miterlimit:10;" x1="190.451" y1="311.411" x2="156.436" y2="293.685"/>
			
				<line style="fill:none;stroke:#000000;stroke-linecap:round;stroke-miterlimit:10;" x1="346.19" y1="282.186" x2="320.286" y2="309.016"/>
			
				<line style="fill:none;stroke:#000000;stroke-linecap:round;stroke-miterlimit:10;" x1="302.081" y1="280.27" x2="302.081" y2="324.346"/>
			
				<line style="fill:none;stroke:#000000;stroke-linecap:round;stroke-miterlimit:10;" x1="200.512" y1="290.81" x2="201.471" y2="283.144"/>
			
				<line style="fill:none;stroke:#000000;stroke-linecap:round;stroke-miterlimit:10;" x1="212.011" y1="289.852" x2="200.512" y2="291.768"/>
			<path style="fill:none;stroke:#000000;stroke-linecap:round;stroke-miterlimit:10;" d="M266.267,235.341
				c0,0-2.514,14.267-14.97,14.267c-12.457,0-14.373-12.456-14.373-12.456"/>
			
				<line style="fill:none;stroke:#000000;stroke-linecap:round;stroke-miterlimit:10;" x1="206.262" y1="391.42" x2="198.807" y2="518.38"/>
			<path style="fill:none;stroke:#000000;stroke-linecap:round;stroke-miterlimit:10;" d="M258.004,394.294
				c0,0-0.184,25.097-3.833,28.746c-1.916,1.916-5.749,0-5.749,0"/>
			
				<line style="fill:none;stroke:#000000;stroke-linecap:round;stroke-miterlimit:10;" x1="248.901" y1="397.648" x2="248.901" y2="433.101"/>
			<path style="fill:none;stroke:#000000;stroke-linecap:round;stroke-miterlimit:10;" d="M226.384,394.294
				c0,0-1.158,17.419-7.665,22.996c-6.707,5.749-14.197,3.769-14.197,3.769"/>
			<path style="fill:none;stroke:#000000;stroke-linecap:round;stroke-miterlimit:10;" d="M277.168,386.629
				c0,0,2.293,25.085,8.8,30.662c6.707,5.749,14.197,3.769,14.197,3.769"/>
			<path style="fill:none;stroke:#000000;stroke-linecap:round;stroke-miterlimit:10;" d="M298.58,392.869"/>
			<path style="fill:#EECCC1;" d="M417.357,226.405c3.192,3.918-2.916,21.928-2.045,23.886c0.87,1.958,6.178,11.791,2.219,14.489
				c-3.959,2.698-11.666-6.399-11.75-10.183C405.697,250.814,413.676,221.887,417.357,226.405z"/>
			<path style="fill:#EECCC1;" d="M409.164,250.304c0,0,10.418-13.374,12.222-15.394c3.243-3.631,13.423-15.414,13.423-15.414
				s1.759-1.31,2.43-0.126c1.341,2.367-12.062,19.848-12.062,19.848s18.767-20.541,20.47-17.461
				c1.316,2.381-16.678,21.769-16.678,21.769s15.514-16.544,16.824-14.785c1.624,2.182-13.615,18.919-13.615,18.919
				s12.482-13.087,13.76-11.935c1.629,1.468-13.764,18.007-13.764,18.007l-5.578,6.227L409.164,250.304z"/>
			<path style="fill:#FACB42;" d="M63.506,195.958c0-8.065-6.7-14.565-14.837-14.238c-7.267,0.292-13.217,6.127-13.638,13.388
				c-0.195,3.364,0.777,6.494,2.55,9.022c3.674,5.238,6.021,11.288,6.504,17.668l0.073,0.961h10.197l0.073-0.962
				c0.477-6.298,2.652-12.363,6.365-17.473C62.5,201.975,63.506,199.084,63.506,195.958z"/>
			<path style="fill:none;stroke:#000000;stroke-miterlimit:10;" d="M46.249,218.705c-0.779-0.813-0.6-2.657-0.781-3.769
				c-0.996-6.136-1.992-12.272-2.987-18.408c-0.035-0.219-0.07-0.45,0.008-0.658c0.066-0.175,0.205-0.312,0.352-0.426
				c1.175-0.911,3.143-0.454,3.796,0.881c0.273,0.559,0.155,1.454-0.464,1.517c-0.682,0.07-0.918-0.952-0.61-1.564
				c0.487-0.966,1.688-1.51,2.735-1.237c1.047,0.272,1.831,1.333,1.785,2.414c-0.012,0.279-0.19,0.637-0.46,0.564
				c-0.518-0.389-0.322-1.227,0.072-1.741c0.543-0.709,1.425-1.205,2.312-1.099c0.887,0.106,1.684,0.934,1.582,1.821
				c-0.068,0.593-0.814,1.139-1.244,0.726c-0.405-0.389-0.029-1.077,0.42-1.413c0.644-0.481,1.442-0.753,2.246-0.764
				c0.263-0.004,0.543,0.027,0.748,0.191c0.338,0.271,0.339,0.776,0.302,1.207c-0.613,7.178-3.182,14.109-3.48,21.307
				c-0.045-0.28-0.091-0.559-0.137-0.839"/>
			<g>
				<path style="fill:#534741;" d="M55.081,219.097H43.432c-0.538,0-0.974-0.436-0.974-0.974v-0.144
					c0-0.538,0.436-0.974,0.974-0.974h11.649c0.538,0,0.974,0.436,0.974,0.974v0.144C56.054,218.661,55.618,219.097,55.081,219.097z
					"/>
				<path style="fill:#534741;" d="M55.081,221.189H43.432c-0.538,0-0.974-0.436-0.974-0.974v-0.145
					c0-0.538,0.436-0.974,0.974-0.974h11.649c0.538,0,0.974,0.436,0.974,0.974v0.145C56.054,220.753,55.618,221.189,55.081,221.189z
					"/>
				<path style="fill:#534741;" d="M55.081,223.281H43.432c-0.538,0-0.974-0.436-0.974-0.974v-0.144
					c0-0.538,0.436-0.974,0.974-0.974h11.649c0.538,0,0.974,0.436,0.974,0.974v0.144C56.054,222.845,55.618,223.281,55.081,223.281z
					"/>
				<path style="fill:#534741;" d="M55.081,225.373H43.432c-0.538,0-0.974-0.436-0.974-0.974v-0.145
					c0-0.538,0.436-0.974,0.974-0.974h11.649c0.538,0,0.974,0.436,0.974,0.974v0.145C56.054,224.937,55.618,225.373,55.081,225.373z
					"/>
				<polygon style="fill:#534741;" points="51.536,226.68 46.976,226.68 45.073,225.111 53.44,225.111 				"/>
			</g>
			<path style="fill:none;stroke:#000000;stroke-miterlimit:10;" d="M36.311,180.021c-1.643-2.719-2.964-5.633-3.928-8.66"/>
			<path style="fill:none;stroke:#000000;stroke-miterlimit:10;" d="M44.247,178.555c0.819-2.922,1.004-6.02,0.538-9.019"/>
			<path style="fill:none;stroke:#000000;stroke-miterlimit:10;" d="M32.404,190.397c-1.822-0.752-3.808-1.106-5.778-1.029"/>
			<path style="fill:none;stroke:#000000;stroke-miterlimit:10;" d="M70.159,193.236c2.672-0.865,5.586-0.969,8.312-0.297"/>
			<path style="fill:none;stroke:#000000;stroke-miterlimit:10;" d="M62.162,181.743c1.204-2.192,3-4.055,5.148-5.337"/>
			<g>
				<path style="fill:#52A8F2;" d="M463.006,144.18c0,0,8.25,2.801,9,4c5,8,9,33,9,33s-17.173-6.732-22.087-13.866
					C454.006,160.18,463.006,144.18,463.006,144.18z"/>
				<path style="fill:#52A8F2;" d="M429.006,144.18c0,0-8.25,2.801-9,4c-5,8-9,33-9,33s17.174-6.732,22.087-13.866
					C438.006,160.18,429.006,144.18,429.006,144.18z"/>
				<path style="fill:#0468BF;" d="M470.006,120.18c-1-10-24-31-24-31s-23,21-24,31s12,50,12,50h12h12
					C458.006,170.18,471.006,130.18,470.006,120.18z"/>
				<path style="fill:#52A8F2;" d="M431.914,185.1c0.196,3.815,2.195,7.498,5.288,9.74c3.32,2.407,7.603,3.106,11.076,5.286
					c4.233,2.657,6.962,7.559,6.988,12.557c-0.471-2.552,0.531-5.157,1.872-7.379c1.341-2.222,3.038-4.23,4.187-6.557
					c2.568-5.202,2.066-11.577-0.442-16.808c-0.825-1.72-1.872-3.364-3.301-4.627c-3.347-2.957-8.162-3.379-12.619-3.659
					C437.307,173.172,431.471,176.469,431.914,185.1z"/>
				<path style="fill:#52A8F2;" d="M433.393,195.216c-0.201,0.85-0.316,1.747-0.128,2.6c0.337,1.534,1.555,2.627,2.62,3.716
					c3.685,3.768,6.232,8.789,7.177,14.148c-0.257-2.614,1.35-5.031,3.191-6.773c1.84-1.741,4.011-3.122,5.528-5.189
					c2.278-3.103,2.744-7.504,1.529-11.23c-0.367-1.126-0.885-2.214-1.653-3.078c-1.653-1.859-4.195-2.423-6.583-2.66
					C439.306,186.178,434.848,189.071,433.393,195.216z"/>
				<polygon style="fill:#0468BF;" points="434.506,167.68 425.506,185.68 437.506,185.68 442.506,168.68 				"/>
				<polygon style="fill:#0468BF;" points="457.506,167.68 466.506,185.68 454.506,185.68 449.506,168.68 				"/>
				<polygon style="fill:#0468BF;" points="440.506,163.68 440.506,185.68 451.486,185.68 451.506,163.68 				"/>
				<circle style="fill:#52A8F2;stroke:#000000;stroke-miterlimit:10;" cx="446.506" cy="123.68" r="9"/>
				<circle style="fill:#52A8F2;stroke:#000000;stroke-miterlimit:10;" cx="446.506" cy="148.68" r="9"/>
			</g>
			<circle style="fill:#DC4335;" cx="406.919" cy="88.509" r="13.171"/>
			<path style="fill:none;stroke:#000000;stroke-linecap:round;stroke-miterlimit:10;" d="M418.878,82.987
				c4.635,1.11,7.628,2.868,7.628,4.847c0,3.357-8.618,6.079-19.25,6.079s-19.25-2.722-19.25-6.079c0-1.868,2.669-3.54,6.868-4.655"
				/>
			<path style="fill:none;stroke:#000000;stroke-miterlimit:10;" d="M183.521,102.811c7.903-3.57,16.608-7.05,25.846-10.269
				c10.841-3.777,21.329-6.817,30.954-9.066"/>
			<path style="fill:none;stroke:#000000;stroke-miterlimit:10;" d="M199.893,75.743c7.324,3.153,15.018,6.831,22.854,10.977
				c8.909,4.713,17.217,9.615,24.661,14.476"/>
			<path style="fill:none;stroke:#000000;stroke-miterlimit:10;" d="M241.852,85.516c-1.198,5.002-2.561,10.146-4.086,15.379
				c-3.434,11.783-7.321,22.749-11.352,32.35"/>
			<circle style="fill:#0468BF;" cx="215.506" cy="103.68" r="32"/>
			<circle style="fill:#0468BF;" cx="272.006" cy="143.18" r="3.5"/>
			<circle style="fill:#0468BF;" cx="283.506" cy="97.68" r="3"/>
			<circle style="fill:#0468BF;" cx="219.006" cy="44.18" r="6.5"/>
			<circle style="fill:#0468BF;" cx="159.006" cy="85.18" r="4.5"/>
			<circle style="fill:#0468BF;" cx="314.506" cy="62.68" r="4"/>
			<circle style="fill:#0468BF;" cx="359.006" cy="99.18" r="3.5"/>
			<circle style="fill:#DC4335;" cx="116.006" cy="151.18" r="5.5"/>
			<circle style="fill:#0468BF;" cx="68.006" cy="147.18" r="4.5"/>
			<circle style="fill:#DC4335;" cx="315.506" cy="128.68" r="5"/>
			<polygon style="fill:#52A8F2;" points="239.621,190.289 234.916,195.173 238.014,203.086 243.977,202.626 			"/>
			<path style="fill:#0468BF;" d="M269.385,198.76l-25.032,5.174c-2.647,0.547-5.237-1.155-5.784-3.802l-1.505-7.279
				c-0.547-2.647,1.155-5.237,3.802-5.784l25.032-5.174c2.647-0.547,5.237,1.155,5.784,3.802l1.505,7.279
				C273.735,195.623,272.032,198.213,269.385,198.76z"/>
			<path style="fill:#52A8F2;" d="M268.624,198.124l-23.626,4.884c-2.451,0.507-4.849-1.07-5.356-3.521l-1.348-6.522
				c-0.507-2.451,1.07-4.849,3.521-5.355l23.626-4.884c2.451-0.507,4.849,1.07,5.355,3.521l1.348,6.522
				C272.651,195.22,271.075,197.617,268.624,198.124z"/>
			<g>
				<g>
					<path d="M282.347,120.861c3.043-2.686,3.335-7.348,0.646-10.391l1.472-1.299c3.403,3.853,3.038,9.758-0.819,13.161
						L282.347,120.861z"/>
				</g>
				<g>
					<path d="M284.945,123.805c2.26-1.995,3.608-4.752,3.795-7.761c0.187-3.01-0.809-5.912-2.804-8.172l1.472-1.299
						c2.343,2.653,3.512,6.06,3.292,9.593c-0.22,3.532-1.802,6.768-4.455,9.111L284.945,123.805z"/>
				</g>
				<g>
					<path d="M287.901,127.153c6.514-5.751,7.133-15.727,1.383-22.237l1.471-1.299c6.464,7.322,5.768,18.541-1.556,25.007
						L287.901,127.153z"/>
				</g>
				<g>
					<path d="M280.489,117.964c-1.082-0.067-1.905-0.999-1.837-2.081s0.999-1.905,2.081-1.837c1.082,0.067,1.905,0.999,1.837,2.081
						C282.503,117.209,281.571,118.032,280.489,117.964z"/>
				</g>
			</g>
			<g>
				<g>
					<path d="M185.632,47.688c-4.05-0.261-7.561,2.82-7.82,6.873l-1.959-0.126c0.329-5.13,4.772-9.038,9.905-8.705L185.632,47.688z"
						/>
				</g>
				<g>
					<path d="M185.885,43.77c-3.009-0.194-5.913,0.796-8.178,2.786c-2.265,1.991-3.619,4.744-3.813,7.753l-1.959-0.126
						c0.228-3.532,1.817-6.764,4.476-9.101c2.658-2.336,6.068-3.498,9.6-3.27L185.885,43.77z"/>
				</g>
				<g>
					<path d="M186.172,39.313c-8.671-0.559-16.177,6.041-16.735,14.708l-1.959-0.126c0.628-9.747,9.07-17.169,18.82-16.541
						L186.172,39.313z"/>
				</g>
				<g>
					<path d="M184.89,51.048c0.716,0.814,0.636,2.055-0.178,2.771c-0.814,0.716-2.055,0.636-2.771-0.179
						c-0.716-0.814-0.636-2.055,0.178-2.771C182.934,50.154,184.174,50.234,184.89,51.048z"/>
				</g>
			</g>
			<g>
				<g>
					<path d="M153.404,431.226c-0.7,3.998,1.982,7.822,5.983,8.52l-0.338,1.934c-5.064-0.885-8.466-5.726-7.578-10.792
						L153.404,431.226z"/>
				</g>
				<g>
					<path d="M149.536,430.549c-0.52,2.97,0.149,5.965,1.881,8.432c1.733,2.468,4.323,4.113,7.292,4.632l-0.338,1.934
						c-3.486-0.61-6.527-2.541-8.561-5.438c-2.034-2.896-2.818-6.412-2.208-9.898L149.536,430.549z"/>
				</g>
				<g>
					<path d="M145.137,429.78c-1.498,8.559,4.248,16.738,12.803,18.233l-0.338,1.934c-9.621-1.683-16.082-10.882-14.398-20.505
						L145.137,429.78z"/>
				</g>
				<g>
					<path d="M156.664,432.329c0.887-0.623,2.112-0.409,2.735,0.479c0.623,0.887,0.409,2.112-0.479,2.735
						c-0.887,0.623-2.112,0.409-2.735-0.479C155.562,434.176,155.777,432.952,156.664,432.329z"/>
				</g>
			</g>
			<path style="fill:none;stroke:#000000;stroke-linecap:round;stroke-miterlimit:10;" d="M247.408,101.196
				c24.576,16.048,39.743,31.654,36.075,38.586c-4.778,9.031-39.717-0.083-78.039-20.357
				c-38.322-20.274-65.514-44.031-60.736-53.062c3.801-7.185,26.69-2.886,55.185,9.38"/>
			
				<ellipse transform="matrix(0.2286 -0.9735 0.9735 0.2286 -127.2363 712.3362)" style="fill:#0468BF;" cx="385.863" cy="436.454" rx="11.976" ry="11.976"/>
			<path style="fill:none;stroke:#000000;stroke-linecap:round;stroke-miterlimit:10;" d="M397.802,435.524
				c9.198,6.006,14.873,11.846,13.501,14.441c-1.788,3.38-14.864-0.031-29.205-7.618c-14.342-7.587-24.518-16.478-22.73-19.858
				c1.423-2.689,9.989-1.08,20.652,3.51"/>
			<path style="fill:none;stroke:#000000;stroke-linecap:round;stroke-miterlimit:10;" d="M240.322,83.476
				c26.723-6.243,46.79-6.388,49.262,0.706c3.362,9.648-27.101,29.034-68.041,43.3c-40.94,14.265-76.854,18.008-80.216,8.36
				c-2.603-7.471,15.075-20.781,42.195-33.031"/>
			<path style="fill:none;stroke:#000000;stroke-linecap:round;stroke-miterlimit:10;" d="M226.414,133.245
				c-10.209,24.317-21.34,39.888-28.373,37.838c-9.809-2.859-7.928-38.918,4.203-80.541c12.13-41.623,29.916-73.047,39.725-70.189
				c8.576,2.499,8.216,30.377-0.117,65.162"/>
			<circle style="fill:#92AB3B;" cx="169.006" cy="141.18" r="5.5"/>
			<circle style="fill:#92AB3B;" cx="262.506" cy="79.68" r="3"/>
			<circle style="fill:none;stroke:#000000;stroke-miterlimit:10;" cx="94.006" cy="217.18" r="4"/>
			<circle style="fill:#FACB42;" cx="381.506" cy="39.68" r="2.5"/>
			<circle style="fill:none;stroke:#000000;stroke-miterlimit:10;" cx="425.506" cy="31.68" r="6.5"/>
			<circle style="fill:#FACB42;" cx="56.506" cy="46.68" r="3.5"/>
			<circle style="fill:none;stroke:#000000;stroke-miterlimit:10;" cx="243.506" cy="150.68" r="2.5"/>
			<circle style="fill:none;stroke:#000000;stroke-miterlimit:10;" cx="236.506" cy="56.68" r="2.5"/>
			<circle style="fill:none;stroke:#000000;stroke-miterlimit:10;" cx="161.506" cy="18.68" r="2.5"/>
			<circle style="fill:none;stroke:#DC4335;stroke-miterlimit:10;" cx="475.006" cy="214.18" r="5"/>
			<circle style="fill:none;stroke:#000000;stroke-miterlimit:10;" cx="483.506" cy="125.68" r="3.5"/>
			<circle style="fill:none;stroke:#0468BF;stroke-miterlimit:10;" cx="11.506" cy="249.68" r="6.5"/>
			<circle style="fill:none;stroke:#000000;stroke-miterlimit:10;" cx="20.006" cy="216.18" r="3"/>
			<polyline style="fill:none;stroke:#000000;stroke-miterlimit:10;" points="299.006,81.18 310.006,71.18 324.006,80.18 
				338.006,71.18 353.006,82.18 369.006,73.18 			"/>
			<polyline style="fill:none;stroke:#000000;stroke-miterlimit:10;" points="315.006,112.18 341.006,110.18 362.006,122.18 
				382.006,118.18 399.006,132.18 412.006,128.18 			"/>
			<path style="fill:none;stroke:#000000;stroke-miterlimit:10;" d="M300.142,122.435c41.307,3.52,79.883,14.313,113.671,30.741"/>
			<path style="fill:none;stroke:#000000;stroke-miterlimit:10;" d="M66.781,192.914c22.819-19.959,50.195-36.552,80.819-48.734"/>
			<path style="fill:none;stroke:#000000;stroke-miterlimit:10;" d="M295.201,88.914c43.109,2.8,83.41,13.508,118.615,30.3"/>
			<path style="fill:none;stroke:#000000;stroke-miterlimit:10;" d="M51.43,176.678c29.913-31.992,70.507-57.27,117.576-72.482"/>
			<path style="fill:none;stroke:#000000;stroke-miterlimit:10;" d="M487.414,408.026c-50.434,51.235-128.846,84.154-216.908,84.154
				c-152.154,0-275.5-98.273-275.5-219.5c0-35.647,10.665-69.31,29.593-99.072"/>
			<path style="fill:none;stroke:#000000;stroke-miterlimit:10;" d="M488.498,433.102c-49.617,38.42-117.337,62.078-191.991,62.078
				c-152.154,0-275.5-98.273-275.5-219.5c0-13.856,1.611-27.413,4.693-40.557"/>
			<path style="fill:none;stroke:#000000;stroke-miterlimit:10;" d="M494.492,409.095c-39.586,27.017-88.294,46.011-142.275,53.006
				C212.304,480.233,86.096,411.389,56.05,305.434"/>
			<path style="fill:none;stroke:#000000;stroke-miterlimit:10;" d="M427.716,92.402c2.865,1.589,5.69,3.22,8.474,4.892"/>
			<path style="fill:none;stroke:#000000;stroke-miterlimit:10;" d="M199.893,60.456c22.536-4.747,46.204-7.276,70.613-7.276
				c43.728,0,85.076,8.117,121.801,22.562"/>
			<path style="fill:none;stroke:#000000;stroke-miterlimit:10;" d="M24.599,173.607c26.174-41.158,68.148-74.859,119.564-96.036"/>
			<path style="fill:#FACB42;" d="M288.506,52.179l-0.229-4.905l-3.312,0.154c-0.41-1.854-1.204-3.555-2.292-5.018l2.206-2.452
				l-3.588-3.309l-2.205,2.451c-1.538-0.959-3.284-1.603-5.149-1.844l-0.156-3.352l-4.845,0.226l0.159,3.419
				c-1.781,0.454-3.411,1.277-4.81,2.385l-2.572-2.372l-3.265,3.628l2.641,2.436c-0.874,1.502-1.457,3.194-1.683,4.993l-3.661,0.171
				l0.229,4.905l3.724-0.174c0.43,1.719,1.191,3.3,2.211,4.671l-2.536,2.818l3.588,3.309l2.535-2.817
				c1.441,0.899,3.066,1.519,4.8,1.792l0.176,3.771l4.845-0.226l-0.173-3.704c1.747-0.394,3.358-1.14,4.756-2.162l2.639,2.434
				l3.264-3.628l-2.572-2.372c0.958-1.51,1.616-3.229,1.897-5.071L288.506,52.179z M272.446,57.354
				c-3.794,0.177-7.014-2.756-7.19-6.55c-0.177-3.794,2.756-7.014,6.55-7.19c3.794-0.177,7.014,2.756,7.19,6.55
				C279.173,53.958,276.24,57.177,272.446,57.354z"/>
			<path style="fill:#FACB42;" d="M135.368,413.169l-0.185-3.961l-2.675,0.125c-0.331-1.497-0.972-2.871-1.851-4.052l1.781-1.979
				l-2.897-2.672l-1.78,1.979c-1.242-0.775-2.651-1.294-4.158-1.489l-0.126-2.707l-3.912,0.182l0.129,2.761
				c-1.438,0.366-2.755,1.031-3.884,1.926l-2.077-1.915l-2.636,2.93l2.133,1.967c-0.706,1.213-1.177,2.579-1.359,4.032l-2.956,0.138
				l0.185,3.961l3.007-0.14c0.347,1.388,0.962,2.664,1.785,3.772l-2.047,2.275l2.897,2.672l2.046-2.275
				c1.164,0.726,2.476,1.227,3.876,1.447l0.142,3.045l3.912-0.182l-0.139-2.991c1.41-0.318,2.711-0.92,3.84-1.746l2.131,1.965
				l2.636-2.93l-2.077-1.915c0.773-1.219,1.305-2.608,1.532-4.095L135.368,413.169z M122.4,417.348
				c-3.064,0.143-5.663-2.225-5.806-5.289c-0.143-3.064,2.225-5.663,5.289-5.806c3.064-0.143,5.663,2.225,5.806,5.289
				S125.463,417.206,122.4,417.348z"/>
			<path style="fill:#DC4335;" d="M133.006,111.063c-3.849,0-6.969-3.082-6.969-6.883c0-3.802,3.12-6.883,6.969-6.883
				c3.849,0,6.969,3.082,6.969,6.883C139.975,107.982,136.855,111.063,133.006,111.063z M149.506,106.637v-4.915h-3.36
				c-0.327-1.873-1.051-3.611-2.083-5.124l2.348-2.348l-3.475-3.475l-2.347,2.347c-1.511-1.031-3.248-1.756-5.125-2.083V87.68
				h-4.915v3.426c-1.824,0.371-3.513,1.118-4.981,2.16l-2.492-2.491l-3.475,3.475l2.558,2.558c-0.956,1.461-1.626,3.125-1.939,4.914
				h-3.714v4.915h3.777c0.354,1.738,1.05,3.354,2.017,4.773l-2.699,2.699l3.475,3.475l2.698-2.698
				c1.416,0.966,3.032,1.662,4.774,2.016v3.778h4.915v-3.711c1.787-0.313,3.452-0.983,4.916-1.94l2.556,2.556l3.475-3.475
				l-2.491-2.491c1.041-1.465,1.788-3.153,2.159-4.981H149.506z"/>
			<path style="fill:#DC4335;" d="M44.006,408.063c-3.849,0-6.969-3.082-6.969-6.883c0-3.802,3.12-6.883,6.969-6.883
				c3.849,0,6.969,3.082,6.969,6.883C50.975,404.982,47.855,408.063,44.006,408.063z M60.506,403.637v-4.915h-3.36
				c-0.327-1.873-1.051-3.611-2.083-5.124l2.348-2.348l-3.475-3.475l-2.347,2.347c-1.511-1.031-3.248-1.755-5.125-2.083v-3.359
				h-4.915v3.426c-1.824,0.371-3.513,1.118-4.981,2.16l-2.492-2.491l-3.475,3.475l2.558,2.558c-0.956,1.461-1.626,3.125-1.939,4.914
				h-3.714v4.915h3.777c0.354,1.738,1.05,3.355,2.017,4.773l-2.699,2.699l3.475,3.475l2.698-2.698
				c1.416,0.966,3.032,1.662,4.774,2.016v3.778h4.915v-3.711c1.787-0.313,3.452-0.983,4.916-1.94l2.556,2.556l3.475-3.475
				l-2.491-2.491c1.041-1.465,1.788-3.153,2.159-4.981H60.506z"/>
			<path style="fill:#DC4335;" d="M349.506,466.686c-2.799,0-5.068-2.241-5.068-5.006c0-2.765,2.269-5.006,5.068-5.006
				c2.799,0,5.068,2.241,5.068,5.006C354.574,464.445,352.305,466.686,349.506,466.686z M361.506,463.467v-3.574h-2.444
				c-0.238-1.362-0.765-2.626-1.515-3.727l1.708-1.708l-2.528-2.527l-1.707,1.707c-1.099-0.75-2.362-1.277-3.727-1.515v-2.443
				h-3.574v2.492c-1.327,0.27-2.555,0.813-3.622,1.571l-1.812-1.812l-2.527,2.527l1.861,1.861c-0.695,1.062-1.182,2.273-1.41,3.574
				h-2.701v3.574h2.747c0.258,1.264,0.763,2.44,1.467,3.471l-1.963,1.963l2.527,2.527l1.962-1.962
				c1.03,0.702,2.205,1.208,3.472,1.466v2.748h3.574v-2.699c1.299-0.227,2.511-0.715,3.575-1.411l1.859,1.859l2.528-2.527
				l-1.812-1.812c0.757-1.066,1.3-2.293,1.57-3.623H361.506z"/>
			<g>
				<circle style="fill:#92AB3B;" cx="468.756" cy="448.43" r="4.25"/>
				<path style="fill:#92AB3B;" d="M480.506,450.18v-3.5h-2.393c-0.233-1.334-0.749-2.571-1.484-3.649l1.672-1.672l-2.475-2.475
					l-1.672,1.672c-1.076-0.734-2.313-1.25-3.65-1.484v-2.392h-3.5v2.44c-1.299,0.264-2.502,0.796-3.547,1.539l-1.774-1.774
					l-2.475,2.475l1.822,1.822c-0.681,1.04-1.158,2.225-1.381,3.499h-2.645v3.5h2.69c0.252,1.238,0.748,2.389,1.436,3.399
					l-1.922,1.922l2.475,2.475l1.921-1.921c1.009,0.688,2.159,1.183,3.4,1.435v2.69h3.5v-2.643c1.272-0.223,2.459-0.7,3.501-1.382
					l1.82,1.82l2.475-2.475l-1.774-1.774c0.741-1.043,1.273-2.246,1.538-3.547H480.506z M468.756,454.055
					c-3.107,0-5.625-2.518-5.625-5.625c0-3.107,2.518-5.625,5.625-5.625s5.625,2.518,5.625,5.625
					C474.381,451.537,471.863,454.055,468.756,454.055z"/>
			</g>
			<circle style="fill:#DC4335;" cx="37.006" cy="349.18" r="5.5"/>
			<circle style="fill:#92AB3B;" cx="113.006" cy="440.18" r="5.5"/>
			<circle style="fill:none;stroke:#0468BF;stroke-miterlimit:10;" cx="88.506" cy="340.68" r="4"/>
			<circle style="fill:#92AB3B;" cx="18.006" cy="309.18" r="3.5"/>
			<circle style="fill:#92AB3B;" cx="322.006" cy="443.18" r="1.5"/>
			<circle style="fill:#DC4335;" cx="486.006" cy="370.18" r="5.5"/>
			<circle style="fill:#DC4335;" cx="321.006" cy="476.18" r="2.5"/>
			<circle style="fill:#92AB3B;" cx="175.506" cy="419.68" r="2"/>
			<circle style="fill:none;stroke:#000000;stroke-miterlimit:10;" cx="64.506" cy="452.68" r="6"/>
		</g>
	</g>
</g>
</svg>
